<?xml version="1.0" encoding="UTF-8" standalone="no"?>
<!-- Created with Inkscape (http://www.inkscape.org/) -->

<svg
   xmlns:dc="http://purl.org/dc/elements/1.1/"
   xmlns:cc="http://creativecommons.org/ns#"
   xmlns:rdf="http://www.w3.org/1999/02/22-rdf-syntax-ns#"
   xmlns:svg="http://www.w3.org/2000/svg"
   xmlns="http://www.w3.org/2000/svg"
   xmlns:xlink="http://www.w3.org/1999/xlink"
   xmlns:sodipodi="http://sodipodi.sourceforge.net/DTD/sodipodi-0.dtd"
   xmlns:inkscape="http://www.inkscape.org/namespaces/inkscape"
   width="744.09448819"
   height="1052.3622047"
   id="svg2"
   version="1.1"
   inkscape:version="0.48.1 "
   sodipodi:docname="CDD-static-context.svg"
   inkscape:export-filename="C:\Source\IDEA\Laja\wiki\cdd\graphics\CDD-static-context.png"
   inkscape:export-xdpi="180"
   inkscape:export-ydpi="180">
  <defs
     id="defs4">
    <marker
       inkscape:stockid="Arrow2Lend"
       orient="auto"
       refY="0.0"
       refX="0.0"
       id="Arrow2Lend"
       style="overflow:visible;">
      <path
         id="path6749"
         style="font-size:12.0;fill-rule:evenodd;stroke-width:0.62500000;stroke-linejoin:round;"
         d="M 8.7185878,4.0337352 L -2.2072895,0.016013256 L 8.7185884,-4.0017078 C 6.9730900,-1.6296469 6.9831476,1.6157441 8.7185878,4.0337352 z "
         transform="scale(1.1) rotate(180) translate(1,0)" />
    </marker>
    <marker
       inkscape:stockid="Arrow2Lstart"
       orient="auto"
       refY="0.0"
       refX="0.0"
       id="Arrow2Lstart"
       style="overflow:visible">
      <path
         id="path6746"
         style="font-size:12.0;fill-rule:evenodd;stroke-width:0.62500000;stroke-linejoin:round"
         d="M 8.7185878,4.0337352 L -2.2072895,0.016013256 L 8.7185884,-4.0017078 C 6.9730900,-1.6296469 6.9831476,1.6157441 8.7185878,4.0337352 z "
         transform="scale(1.1) translate(1,0)" />
    </marker>
    <marker
       inkscape:stockid="Arrow1Lstart"
       orient="auto"
       refY="0.0"
       refX="0.0"
       id="Arrow1Lstart"
       style="overflow:visible">
      <path
         id="path6728"
         d="M 0.0,0.0 L 5.0,-5.0 L -12.5,0.0 L 5.0,5.0 L 0.0,0.0 z "
         style="fill-rule:evenodd;stroke:#000000;stroke-width:1.0pt;marker-start:none"
         transform="scale(0.8) translate(12.5,0)" />
    </marker>
    <marker
       inkscape:stockid="Arrow2Lstart"
       orient="auto"
       refY="0"
       refX="0"
       id="Arrow2Lstart-1"
       style="overflow:visible">
      <path
         inkscape:connector-curvature="0"
         id="path6746-7"
         style="font-size:12px;fill-rule:evenodd;stroke-width:0.625;stroke-linejoin:round"
         d="M 8.7185878,4.0337352 -2.2072895,0.01601326 8.7185884,-4.0017078 c -1.7454984,2.3720609 -1.7354408,5.6174519 -6e-7,8.035443 z"
         transform="matrix(1.1,0,0,1.1,1.1,0)" />
    </marker>
    <marker
       inkscape:stockid="Arrow2Lend"
       orient="auto"
       refY="0"
       refX="0"
       id="Arrow2Lend-4"
       style="overflow:visible">
      <path
         inkscape:connector-curvature="0"
         id="path6749-0"
         style="font-size:12px;fill-rule:evenodd;stroke-width:0.625;stroke-linejoin:round"
         d="M 8.7185878,4.0337352 -2.2072895,0.01601326 8.7185884,-4.0017078 c -1.7454984,2.3720609 -1.7354408,5.6174519 -6e-7,8.035443 z"
         transform="matrix(-1.1,0,0,-1.1,-1.1,0)" />
    </marker>
    <marker
       inkscape:stockid="Arrow2Lstart"
       orient="auto"
       refY="0"
       refX="0"
       id="Arrow2Lstart-4"
       style="overflow:visible">
      <path
         inkscape:connector-curvature="0"
         id="path6746-8"
         style="font-size:12px;fill-rule:evenodd;stroke-width:0.625;stroke-linejoin:round"
         d="M 8.7185878,4.0337352 -2.2072895,0.01601326 8.7185884,-4.0017078 c -1.7454984,2.3720609 -1.7354408,5.6174519 -6e-7,8.035443 z"
         transform="matrix(1.1,0,0,1.1,1.1,0)" />
    </marker>
    <marker
       inkscape:stockid="Arrow2Lstart"
       orient="auto"
       refY="0"
       refX="0"
       id="Arrow2Lstart-4-5"
       style="overflow:visible">
      <path
         inkscape:connector-curvature="0"
         id="path6746-8-8"
         style="font-size:12px;fill-rule:evenodd;stroke-width:0.625;stroke-linejoin:round"
         d="M 8.7185878,4.0337352 -2.2072895,0.01601326 8.7185884,-4.0017078 c -1.7454984,2.3720609 -1.7354408,5.6174519 -6e-7,8.035443 z"
         transform="matrix(1.1,0,0,1.1,1.1,0)" />
    </marker>
    <marker
       inkscape:stockid="Arrow2Lstart"
       orient="auto"
       refY="0"
       refX="0"
       id="Arrow2Lstart-8"
       style="overflow:visible">
      <path
         inkscape:connector-curvature="0"
         id="path6746-9"
         style="font-size:12px;fill-rule:evenodd;stroke-width:0.625;stroke-linejoin:round"
         d="M 8.7185878,4.0337352 -2.2072895,0.01601326 8.7185884,-4.0017078 c -1.7454984,2.3720609 -1.7354408,5.6174519 -6e-7,8.035443 z"
         transform="matrix(1.1,0,0,1.1,1.1,0)" />
    </marker>
    <marker
       inkscape:stockid="Arrow2Lstart"
       orient="auto"
       refY="0"
       refX="0"
       id="marker3460"
       style="overflow:visible">
      <path
         inkscape:connector-curvature="0"
         id="path3462"
         style="font-size:12px;fill-rule:evenodd;stroke-width:0.625;stroke-linejoin:round"
         d="M 8.7185878,4.0337352 -2.2072895,0.01601326 8.7185884,-4.0017078 c -1.7454984,2.3720609 -1.7354408,5.6174519 -6e-7,8.035443 z"
         transform="matrix(1.1,0,0,1.1,1.1,0)" />
    </marker>
    <marker
       inkscape:stockid="Arrow2Lstart"
       orient="auto"
       refY="0"
       refX="0"
       id="marker3464"
       style="overflow:visible">
      <path
         inkscape:connector-curvature="0"
         id="path3466"
         style="font-size:12px;fill-rule:evenodd;stroke-width:0.625;stroke-linejoin:round"
         d="M 8.7185878,4.0337352 -2.2072895,0.01601326 8.7185884,-4.0017078 c -1.7454984,2.3720609 -1.7354408,5.6174519 -6e-7,8.035443 z"
         transform="matrix(1.1,0,0,1.1,1.1,0)" />
    </marker>
  </defs>
  <sodipodi:namedview
     id="base"
     pagecolor="#ffffff"
     bordercolor="#666666"
     borderopacity="1.0"
     inkscape:pageopacity="0.0"
     inkscape:pageshadow="2"
     inkscape:zoom="1.4142136"
     inkscape:cx="333.85693"
     inkscape:cy="760.25442"
     inkscape:document-units="px"
     inkscape:current-layer="layer1"
     showgrid="false"
     inkscape:window-width="1091"
     inkscape:window-height="904"
     inkscape:window-x="159"
     inkscape:window-y="56"
     inkscape:window-maximized="0" />
  <metadata
     id="metadata7">
    <rdf:RDF>
      <cc:Work
         rdf:about="">
        <dc:format>image/svg+xml</dc:format>
        <dc:type
           rdf:resource="http://purl.org/dc/dcmitype/StillImage" />
        <dc:title></dc:title>
      </cc:Work>
    </rdf:RDF>
  </metadata>
  <g
     inkscape:label="Layer 1"
     inkscape:groupmode="layer"
     id="layer1">
    <path
       sodipodi:type="arc"
       style="color:#000000;fill:#ffaaaa;fill-opacity:1;fill-rule:nonzero;stroke:none;stroke-width:1;marker:none;visibility:visible;display:inline;overflow:visible;enable-background:accumulate"
       id="path2991-0"
       sodipodi:cx="406.5864"
       sodipodi:cy="598.29858"
       sodipodi:rx="108.5914"
       sodipodi:ry="108.5914"
       d="m 406.5864,489.70718 a 108.5914,108.5914 0 1 1 -4e-5,0"
       sodipodi:start="4.712389"
       sodipodi:end="10.995574"
       sodipodi:open="true"
       transform="matrix(0.5925451,0,0,0.5925451,172.22335,118.65818)" />
    <path
       transform="matrix(0.5925451,0,0,0.5925451,171.15895,-211.10085)"
       sodipodi:open="true"
       sodipodi:end="10.995574"
       sodipodi:start="4.712389"
       d="m 406.5864,489.70718 a 108.5914,108.5914 0 1 1 -4e-5,0"
       sodipodi:ry="108.5914"
       sodipodi:rx="108.5914"
       sodipodi:cy="598.29858"
       sodipodi:cx="406.5864"
       id="path3990"
       style="color:#000000;fill:#a6c1d5;fill-opacity:1;fill-rule:nonzero;stroke:none;stroke-width:1;marker:none;visibility:visible;display:inline;overflow:visible;enable-background:accumulate"
       sodipodi:type="arc" />
    <flowRoot
       xml:space="preserve"
       id="flowRoot7618"
       style="fill:black;stroke:none;stroke-opacity:1;stroke-width:1px;stroke-linejoin:miter;stroke-linecap:butt;fill-opacity:1;font-family:Sans;font-style:normal;font-weight:normal;font-size:12px;line-height:125%;letter-spacing:0px;word-spacing:0px"><flowRegion
         id="flowRegion7620"><rect
           id="rect7622"
           width="10"
           height="24.285715"
           x="860"
           y="446.64789" /></flowRegion><flowPara
         id="flowPara7624" /></flowRoot>    <path
       style="color:#000000;fill:#adc383;fill-opacity:1;fill-rule:nonzero;stroke:#000000;stroke-width:2;marker:none;visibility:visible;display:inline;overflow:visible;enable-background:accumulate;stroke-opacity:1;stroke-miterlimit:4;stroke-dasharray:none"
       d="m 412.07144,231.95942 c 35.53693,0 64.3453,28.80837 64.3453,64.3453 0,35.53693 -28.80837,64.34531 -64.34531,64.3453 -35.53692,0 -64.3453,-28.80837 -64.34529,-64.3453 0,-35.53692 28.80835,-64.34529 64.34528,-64.3453"
       id="path2991-3"
       inkscape:connector-curvature="0" />
    <path
       sodipodi:type="arc"
       style="color:#000000;fill:#b8a6d5;fill-opacity:1;fill-rule:nonzero;stroke:none;stroke-width:1;marker:none;visibility:visible;display:inline;overflow:visible;enable-background:accumulate"
       id="path3028"
       sodipodi:cx="406.5864"
       sodipodi:cy="598.29858"
       sodipodi:rx="108.5914"
       sodipodi:ry="108.5914"
       d="m 406.5864,489.70718 a 108.5914,108.5914 0 1 1 -4e-5,0"
       sodipodi:start="4.712389"
       sodipodi:end="10.995574"
       sodipodi:open="true"
       transform="matrix(0.5925451,0,0,0.5925451,11.15895,-211.10085)" />
    <path
       inkscape:connector-curvature="0"
       id="path3030"
       d="m 252.07144,231.95942 c 35.53693,0 64.3453,28.80837 64.3453,64.3453 0,35.53693 -28.80837,64.34531 -64.34531,64.3453 -35.53692,0 -64.3453,-28.80837 -64.34529,-64.3453 0,-35.53692 28.80835,-64.34529 64.34528,-64.3453"
       style="color:#000000;fill:#bebc7a;fill-opacity:1;fill-rule:nonzero;stroke:none;stroke-width:1;marker:none;visibility:visible;display:inline;overflow:visible;enable-background:accumulate" />
    <path
       transform="matrix(0.5925451,0,0,0.5925451,12.22334,118.65818)"
       sodipodi:open="true"
       sodipodi:end="10.995574"
       sodipodi:start="4.712389"
       d="m 406.5864,489.70718 a 108.5914,108.5914 0 1 1 -4e-5,0"
       sodipodi:ry="108.5914"
       sodipodi:rx="108.5914"
       sodipodi:cy="598.29858"
       sodipodi:cx="406.5864"
       id="path3026"
       style="color:#000000;fill:#ea6969;fill-opacity:1;fill-rule:nonzero;stroke:none;stroke-width:1;marker:none;visibility:visible;display:inline;overflow:visible;enable-background:accumulate"
       sodipodi:type="arc" />
    <text
       xml:space="preserve"
       style="font-size:12px;font-style:normal;font-weight:normal;line-height:125%;letter-spacing:0px;word-spacing:0px;fill:#000000;fill-opacity:1;stroke:none;font-family:Sans"
       id="text3570"
       sodipodi:linespacing="125%"
       transform="matrix(0.87864046,-0.47748396,0.47748396,0.87864046,-91.059761,229.31199)"><textPath
         xlink:href="#path2991-3"
         id="textPath7150"><tspan
   id="tspan3572">core domain</tspan></textPath></text>
    <text
       sodipodi:linespacing="125%"
       id="text3574"
       style="font-size:12px;font-style:normal;font-weight:normal;line-height:125%;letter-spacing:0px;word-spacing:0px;fill:#000000;fill-opacity:1;stroke:none;font-family:Sans"
       xml:space="preserve"
       transform="matrix(0.97972735,-0.20033553,0.20033553,0.97972735,-55.114841,52.862981)"><textPath
         xlink:href="#path3030"
         id="textPath7153"><tspan
   id="tspan3576">export</tspan></textPath></text>
    <text
       sodipodi:linespacing="125%"
       id="text3578"
       style="font-size:12px;font-style:normal;font-weight:normal;line-height:125%;letter-spacing:0px;word-spacing:0px;fill:#000000;fill-opacity:1;stroke:none;font-family:Sans"
       xml:space="preserve"
       transform="matrix(0.89067815,-0.4546344,0.4546344,0.89067815,-20.270028,201.14122)"><textPath
         xlink:href="#path3990"
         id="textPath7147"><tspan
   id="tspan3580">show in GUI</tspan></textPath></text>
    <text
       sodipodi:linespacing="125%"
       id="text3582"
       style="font-size:12px;font-style:normal;font-weight:normal;line-height:125%;letter-spacing:0px;word-spacing:0px;fill:#000000;fill-opacity:1;stroke:none;font-family:Sans"
       xml:space="preserve"
       transform="matrix(0.89955249,-0.43681269,0.43681269,0.89955249,-165.82922,223.89132)"><textPath
         xlink:href="#path2991-0"
         id="textPath7156"><tspan
   id="tspan3584">persistence</tspan></textPath></text>
    <path
       sodipodi:type="arc"
       style="color:#000000;fill:#ffffff;fill-opacity:1;stroke:#000000;stroke-width:3.71555781;stroke-miterlimit:4;stroke-opacity:1;stroke-dasharray:none;marker:none;visibility:visible;display:inline;overflow:visible;enable-background:accumulate"
       id="path3594"
       sodipodi:cx="406.5864"
       sodipodi:cy="598.29858"
       sodipodi:rx="84.069969"
       sodipodi:ry="84.069969"
       d="m 406.5864,514.22861 a 84.069969,84.069969 0 1 1 -3e-5,0"
       sodipodi:start="4.712389"
       sodipodi:end="10.995574"
       sodipodi:open="true"
       transform="matrix(0.4037079,0,0,0.4037079,247.6152,55.82434)" />
    <text
       sodipodi:linespacing="125%"
       id="text3596"
       y="372.15253"
       x="393.60123"
       style="font-size:12px;font-style:normal;font-weight:normal;line-height:125%;letter-spacing:0px;word-spacing:0px;fill:#000000;fill-opacity:1;stroke:none;font-family:Sans"
       xml:space="preserve"><tspan
         id="tspan3598"
         y="372.15253"
         x="393.60123"
         sodipodi:role="line">Person</tspan></text>
    <text
       xml:space="preserve"
       style="font-size:11px;font-style:normal;font-weight:normal;line-height:125%;letter-spacing:0px;word-spacing:0px;fill:#000000;fill-opacity:1;stroke:none;font-family:Sans"
       x="415.07166"
       y="151.97263"
       id="text3602"
       sodipodi:linespacing="125%"><tspan
         sodipodi:role="line"
         id="tspan3604"
         x="415.07166"
         y="151.97263" /></text>
    <path
       style="font-size:9px;font-style:normal;font-weight:normal;line-height:125%;letter-spacing:0px;word-spacing:0px;fill:#000000;fill-opacity:1;stroke:none;font-family:Sans"
       d="m 418.0625,336.59375 c -0.4336,10e-6 -0.83301,0.0723 -1.1875,0.21875 -0.35449,0.14649 -0.62793,0.37354 -0.8125,0.65625 -0.18457,0.28272 -0.25,0.58106 -0.25,0.90625 0,0.2959 0.0679,0.57373 0.21875,0.8125 0.15088,0.23877 0.37988,0.43262 0.6875,0.59375 0.2373,0.12598 0.6582,0.26416 1.25,0.40625 0.59179,0.14209 0.95214,0.24512 1.125,0.3125 0.26953,0.10254 0.47656,0.22412 0.59375,0.375 0.11718,0.15088 0.15625,0.3291 0.15625,0.53125 0,0.19922 -0.0347,0.39404 -0.15625,0.5625 -0.12159,0.16846 -0.31348,0.27832 -0.5625,0.375 -0.24903,0.0967 -0.54981,0.15625 -0.875,0.15625 -0.36621,0 -0.67578,-0.0601 -0.96875,-0.1875 -0.29297,-0.12744 -0.51709,-0.29346 -0.65625,-0.5 -0.13916,-0.20654 -0.24317,-0.49023 -0.28125,-0.8125 l -0.78125,0.0937 c 0.0117,0.43067 0.11963,0.81494 0.34375,1.15625 0.22412,0.34131 0.54346,0.58008 0.9375,0.75 0.39404,0.16992 0.88574,0.25 1.46875,0.25 0.45996,0 0.85107,-0.0815 1.21875,-0.25 0.36767,-0.16846 0.64746,-0.38428 0.84375,-0.6875 0.19628,-0.30322 0.31249,-0.62598 0.3125,-0.96875 -10e-6,-0.3457 -0.10254,-0.67236 -0.28125,-0.9375 -0.17872,-0.26513 -0.4375,-0.4834 -0.8125,-0.65625 -0.25782,-0.11718 -0.74463,-0.24951 -1.4375,-0.40625 -0.69287,-0.15673 -1.11719,-0.31933 -1.28125,-0.46875 -0.16699,-0.14941 -0.25,-0.33105 -0.25,-0.5625 0,-0.2666 0.10791,-0.49853 0.34375,-0.6875 0.23584,-0.18896 0.60937,-0.28124 1.125,-0.28125 0.49511,10e-6 0.87158,0.1045 1.125,0.3125 0.25341,0.20801 0.39355,0.53028 0.4375,0.9375 L 420.5,338.5312 c -0.0147,-0.37792 -0.14747,-0.73242 -0.34375,-1.03125 -0.19629,-0.29882 -0.44776,-0.50244 -0.8125,-0.65625 -0.36475,-0.1538 -0.80371,-0.24999 -1.28125,-0.25 z m -30.78125,0.125 0,6.4375 0.875,0 0,-2.625 1.65625,0 c 0.91113,0 1.52636,-0.1831 1.875,-0.5625 0.34863,-0.37939 0.53124,-0.85839 0.53125,-1.40625 -10e-6,-0.31933 -0.0571,-0.60839 -0.1875,-0.875 -0.13038,-0.2666 -0.31739,-0.47704 -0.53125,-0.625 -0.21387,-0.14794 -0.46485,-0.22851 -0.78125,-0.28125 -0.22559,-0.041 -0.57227,-0.0625 -1,-0.0625 l -2.4375,0 z m 35.40625,0.125 -0.78125,0.5 0,1.15625 -0.59375,0 0,0.59375 0.59375,0 0,2.6875 c 0,0.47461 0.0293,0.78955 0.0937,0.9375 0.0645,0.14795 0.18555,0.25293 0.34375,0.34375 0.1582,0.0908 0.36914,0.15625 0.65625,0.15625 0.17578,0 0.37109,-0.0156 0.59375,-0.0625 l -0.125,-0.71875 c -0.14356,0.0205 -0.25586,0.0312 -0.34375,0.0312 -0.11719,0 -0.18701,-0.0244 -0.25,-0.0625 -0.063,-0.0381 -0.12842,-0.0918 -0.15625,-0.15625 -0.0278,-0.0644 -0.0312,-0.18066 -0.0312,-0.40625 l 0,-2.75 0.78125,0 0,-0.59375 -0.78125,0 0,-1.65625 z m 7.5,0 -0.78125,0.5 0,1.15625 -0.59375,0 0,0.59375 0.59375,0 0,2.6875 c 0,0.47461 0.0293,0.78955 0.0937,0.9375 0.0645,0.14795 0.18555,0.25293 0.34375,0.34375 0.1582,0.0908 0.36914,0.15625 0.65625,0.15625 0.17578,0 0.37109,-0.0156 0.59375,-0.0625 L 431,342.4375 c -0.14356,0.0205 -0.28711,0.0312 -0.375,0.0312 -0.11719,0 -0.18701,-0.0244 -0.25,-0.0625 -0.063,-0.0381 -0.12842,-0.0918 -0.15625,-0.15625 -0.0278,-0.0644 -0.0312,-0.18066 -0.0312,-0.40625 l 0,-2.75 0.8125,0 0,-0.59375 -0.8125,0 0,-1.65625 z m -42.03125,0.625 1.625,0 c 0.38672,10e-6 0.66894,0.0244 0.8125,0.0625 0.22265,0.0615 0.39502,0.18311 0.53125,0.375 0.13623,0.1919 0.21875,0.41797 0.21875,0.6875 0,0.37207 -0.11231,0.66993 -0.34375,0.875 -0.23145,0.20508 -0.63672,0.3125 -1.1875,0.3125 l -1.65625,0 0,-2.3125 z m 6.96875,0.90625 c -0.64453,0 -1.1582,0.22266 -1.5625,0.65625 -0.4043,0.4336 -0.625,1.02735 -0.625,1.8125 0,0.75879 0.19385,1.36084 0.59375,1.78125 0.3999,0.42041 0.94238,0.625 1.625,0.625 0.54199,0 0.99511,-0.11133 1.34375,-0.375 0.34863,-0.26367 0.58984,-0.64746 0.71875,-1.125 l -0.8125,-0.0937 c -0.12012,0.33399 -0.29493,0.56641 -0.5,0.71875 -0.20508,0.15234 -0.45996,0.21875 -0.75,0.21875 -0.38965,0 -0.70801,-0.13379 -0.96875,-0.40625 -0.26074,-0.27246 -0.4082,-0.64355 -0.4375,-1.15625 l 3.5,0 c 0.003,-0.0937 0,-0.17187 0,-0.21875 0,-0.7705 -0.19825,-1.35644 -0.59375,-1.78125 -0.39551,-0.4248 -0.90723,-0.65625 -1.53125,-0.65625 z m 4.8125,0 c -0.18457,0 -0.34619,0.0508 -0.5,0.15625 -0.15381,0.10547 -0.34961,0.3252 -0.53125,0.65625 l 0,-0.6875 -0.6875,0 0,4.65625 0.78125,0 0,-2.4375 c 0,-0.33398 0.0371,-0.65625 0.125,-0.9375 0.0586,-0.18457 0.1748,-0.33349 0.3125,-0.4375 0.13769,-0.104 0.26465,-0.15625 0.4375,-0.15625 0.19336,0 0.40039,0.0733 0.59375,0.1875 l 0.28125,-0.75 c -0.27539,-0.16992 -0.5459,-0.25 -0.8125,-0.25 z m 2.8125,0 c -0.24317,0 -0.4751,0.0308 -0.6875,0.0937 -0.2124,0.063 -0.37695,0.15918 -0.5,0.25 -0.16406,0.11719 -0.27979,0.26026 -0.375,0.4375 -0.0952,0.17725 -0.15625,0.3545 -0.15625,0.5625 0,0.22852 0.0718,0.43604 0.1875,0.625 0.11572,0.18897 0.27588,0.33057 0.5,0.4375 0.22412,0.10694 0.63867,0.25977 1.21875,0.40625 0.43066,0.1084 0.7041,0.17969 0.8125,0.25 0.15527,0.10254 0.21875,0.25879 0.21875,0.4375 0,0.19922 -0.0742,0.35205 -0.25,0.5 -0.17578,0.14795 -0.44922,0.21875 -0.8125,0.21875 -0.36035,0 -0.64307,-0.083 -0.84375,-0.25 -0.20068,-0.16699 -0.33106,-0.40527 -0.375,-0.71875 l -0.78125,0.125 c 0.0879,0.49512 0.27588,0.87305 0.59375,1.125 0.31787,0.25195 0.7998,0.375 1.40625,0.375 0.36621,0 0.67871,-0.0601 0.96875,-0.1875 0.29004,-0.12744 0.53369,-0.29834 0.6875,-0.53125 0.1538,-0.23291 0.21875,-0.48633 0.21875,-0.75 0,-0.26953 -0.0615,-0.50586 -0.1875,-0.6875 -0.12598,-0.18164 -0.31006,-0.31103 -0.53125,-0.40625 -0.22119,-0.0952 -0.59668,-0.22558 -1.15625,-0.375 -0.38672,-0.10547 -0.63965,-0.1582 -0.71875,-0.1875 -0.1377,-0.0557 -0.2168,-0.13379 -0.28125,-0.21875 -0.0645,-0.082 -0.0937,-0.17871 -0.0937,-0.28125 0,-0.16113 0.0635,-0.28613 0.21875,-0.40625 0.15527,-0.12011 0.41797,-0.1875 0.78125,-0.1875 0.30761,0 0.55029,0.0527 0.71875,0.1875 0.16845,0.13477 0.27734,0.32227 0.3125,0.5625 l 0.75,-0.0937 c -0.0498,-0.30175 -0.11817,-0.53857 -0.25,-0.71875 -0.13184,-0.18017 -0.34815,-0.33203 -0.625,-0.4375 -0.27686,-0.10546 -0.60254,-0.15625 -0.96875,-0.15625 z m 4.875,0 c -0.57715,0 -1.06738,0.18555 -1.46875,0.53125 -0.48047,0.41602 -0.71875,1.042 -0.71875,1.90625 0,0.78809 0.19092,1.39356 0.59375,1.8125 0.40283,0.41895 0.94043,0.625 1.59375,0.625 0.40722,0 0.78076,-0.0908 1.125,-0.28125 0.34423,-0.19043 0.60107,-0.46826 0.78125,-0.8125 0.18017,-0.34424 0.28125,-0.80566 0.28125,-1.40625 0,-0.74121 -0.21778,-1.32959 -0.625,-1.75 -0.40723,-0.42041 -0.9209,-0.625 -1.5625,-0.625 z m 5.3125,0 c -0.64746,0 -1.15723,0.26856 -1.5,0.78125 l 0,-0.65625 -0.71875,0 0,4.65625 0.8125,0 0,-2.5625 c 0,-0.59765 0.0991,-1.00488 0.34375,-1.21875 0.24463,-0.21386 0.53808,-0.3125 0.875,-0.3125 0.21093,0 0.40576,0.061 0.5625,0.15625 0.15673,0.0952 0.28222,0.21534 0.34375,0.375 0.0615,0.15967 0.0625,0.39649 0.0625,0.71875 l 0,2.84375 0.8125,0 0,-2.875 c 0,-0.36621 -0.0332,-0.63476 -0.0625,-0.78125 -0.0469,-0.22558 -0.13282,-0.39843 -0.25,-0.5625 -0.11719,-0.16406 -0.26416,-0.30517 -0.5,-0.40625 -0.23584,-0.10107 -0.5,-0.15625 -0.78125,-0.15625 z m 13.28125,0 c -0.40137,0 -0.75781,0.0464 -1.0625,0.15625 -0.30469,0.10987 -0.52637,0.26514 -0.6875,0.46875 -0.16113,0.20362 -0.27344,0.48145 -0.34375,0.8125 l 0.78125,0.125 c 0.085,-0.33105 0.19775,-0.58838 0.375,-0.71875 0.17724,-0.13037 0.44043,-0.1875 0.8125,-0.1875 0.39843,0 0.7041,0.10254 0.90625,0.28125 0.14941,0.13184 0.21875,0.33399 0.21875,0.65625 0,0.0293 0.003,0.11035 0,0.21875 -0.30176,0.10547 -0.76758,0.20508 -1.40625,0.28125 -0.31348,0.0381 -0.53223,0.084 -0.6875,0.125 -0.21094,0.0586 -0.42529,0.13574 -0.59375,0.25 -0.16846,0.11426 -0.30225,0.24854 -0.40625,0.4375 -0.104,0.18897 -0.15625,0.42774 -0.15625,0.65625 0,0.38965 0.16211,0.68701 0.4375,0.9375 0.27539,0.25049 0.64355,0.375 1.15625,0.375 0.31054,0 0.604,-0.0537 0.875,-0.15625 0.27099,-0.10254 0.55078,-0.28223 0.84375,-0.53125 0.0234,0.21973 0.0742,0.42969 0.15625,0.59375 l 0.84375,0 c -0.0996,-0.17871 -0.15381,-0.36768 -0.1875,-0.5625 -0.0337,-0.19482 -0.0625,-0.6709 -0.0625,-1.40625 l 0,-1.03125 c 0,-0.35156 -0.005,-0.61523 -0.0312,-0.75 -0.0469,-0.21679 -0.13282,-0.38916 -0.25,-0.53125 -0.11719,-0.14209 -0.31348,-0.25 -0.5625,-0.34375 -0.24903,-0.0937 -0.57032,-0.15625 -0.96875,-0.15625 z m 7.4375,0 c -0.64453,0 -1.1582,0.22266 -1.5625,0.65625 -0.4043,0.4336 -0.59375,1.02735 -0.59375,1.8125 0,0.75879 0.19385,1.36084 0.59375,1.78125 0.3999,0.42041 0.94238,0.625 1.625,0.625 0.54199,0 0.99511,-0.11133 1.34375,-0.375 0.34863,-0.26367 0.58984,-0.64746 0.71875,-1.125 l -0.84375,-0.0937 c -0.12012,0.33399 -0.26368,0.56641 -0.46875,0.71875 -0.20508,0.15234 -0.45996,0.21875 -0.75,0.21875 -0.38965,0 -0.70801,-0.13379 -0.96875,-0.40625 -0.26074,-0.27246 -0.4082,-0.64355 -0.4375,-1.15625 l 3.46875,0 c 0.003,-0.0937 0,-0.17187 0,-0.21875 0,-0.7705 -0.19825,-1.35644 -0.59375,-1.78125 -0.39551,-0.4248 -0.90723,-0.65625 -1.53125,-0.65625 z m -38.53125,0.65625 c 0.40136,0 0.74804,0.16407 1,0.46875 0.16406,0.19629 0.24609,0.48243 0.28125,0.875 l -2.59375,0 c 0.0264,-0.40722 0.15869,-0.72558 0.40625,-0.96875 0.24756,-0.24316 0.54297,-0.375 0.90625,-0.375 z m 12.5,0 c 0.38965,0 0.70654,0.14014 0.96875,0.4375 0.2622,0.29737 0.40625,0.73535 0.40625,1.3125 0,0.61231 -0.14551,1.07617 -0.40625,1.375 -0.26075,0.29883 -0.57617,0.4375 -0.96875,0.4375 -0.39551,0 -0.73926,-0.14014 -1,-0.4375 -0.26074,-0.29736 -0.375,-0.74609 -0.375,-1.34375 0,-0.59765 0.11426,-1.04785 0.375,-1.34375 0.26074,-0.29589 0.60449,-0.4375 1,-0.4375 z m 26.0625,0 c 0.40136,0 0.71679,0.16407 0.96875,0.46875 0.16406,0.19629 0.27734,0.48243 0.3125,0.875 l -2.625,0 c 0.0264,-0.40722 0.15869,-0.72558 0.40625,-0.96875 0.24756,-0.24316 0.57422,-0.375 0.9375,-0.375 z m -6.46875,1.78125 0,0.28125 c 0,0.34863 -0.04,0.63379 -0.125,0.8125 -0.11133,0.23145 -0.2627,0.39795 -0.5,0.53125 -0.23731,0.1333 -0.53906,0.1875 -0.84375,0.1875 -0.30762,0 -0.52783,-0.0469 -0.6875,-0.1875 -0.15967,-0.14062 -0.25,-0.32031 -0.25,-0.53125 0,-0.13769 0.0518,-0.26221 0.125,-0.375 0.0732,-0.11279 0.17773,-0.1914 0.3125,-0.25 0.13476,-0.0586 0.3623,-0.14062 0.6875,-0.1875 0.57422,-0.082 0.99414,-0.16406 1.28125,-0.28125 z"
       id="text8256"
       inkscape:connector-curvature="0" />
    <text
       xml:space="preserve"
       style="font-size:21.24538231px;font-style:normal;font-weight:normal;line-height:125%;letter-spacing:0px;word-spacing:0px;color:#000000;fill:#000000;fill-opacity:1;fill-rule:nonzero;stroke:none;stroke-width:1;marker:none;visibility:visible;display:inline;overflow:visible;enable-background:accumulate;font-family:Sans"
       x="40.264893"
       y="153.97133"
       id="text5208"
       sodipodi:linespacing="125%"><tspan
         id="tspan5210"
         sodipodi:role="line"
         x="40.264893"
         y="153.97133">GUI</tspan></text>
    <text
       sodipodi:linespacing="125%"
       id="text5212"
       y="307.97134"
       x="40.264893"
       style="font-size:21.24538231px;font-style:normal;font-weight:normal;line-height:125%;letter-spacing:0px;word-spacing:0px;color:#000000;fill:#000000;fill-opacity:1;fill-rule:nonzero;stroke:none;stroke-width:1;marker:none;visibility:visible;display:inline;overflow:visible;enable-background:accumulate;font-family:Sans"
       xml:space="preserve"><tspan
         y="307.97134"
         x="40.264893"
         sodipodi:role="line"
         id="tspan5214">Domain</tspan></text>
    <text
       xml:space="preserve"
       style="font-size:21.24538231px;font-style:normal;font-weight:normal;line-height:125%;letter-spacing:0px;word-spacing:0px;color:#000000;fill:#000000;fill-opacity:1;fill-rule:nonzero;stroke:none;stroke-width:1;marker:none;visibility:visible;display:inline;overflow:visible;enable-background:accumulate;font-family:Sans"
       x="40.264893"
       y="481.97134"
       id="text5216"
       sodipodi:linespacing="125%"><tspan
         id="tspan5218"
         sodipodi:role="line"
         x="40.264893"
         y="481.97134">Infrastructure</tspan></text>
  </g>
</svg>
